<svg version="1.1" id="Layer_1" xmlns="http://www.w3.org/2000/svg" xmlns:xlink="http://www.w3.org/1999/xlink" x="0px" y="0px"
	 width="100%" viewBox="0 0 80 80" enable-background="new 0 0 80 80" xml:space="preserve">
<path fill="#FFFFFF" opacity="1.000000" stroke="none" 
	d="
M44.000000,81.000000 
	C29.333334,81.000000 15.166667,81.000000 1.000000,81.000000 
	C1.000000,54.333332 1.000000,27.666666 1.000000,1.000000 
	C27.666666,1.000000 54.333332,1.000000 81.000000,1.000000 
	C81.000000,27.666666 81.000000,54.333332 81.000000,81.000000 
	C68.833336,81.000000 56.666668,81.000000 44.000000,81.000000 
M47.264557,32.212048 
	C45.879581,33.975250 44.494602,35.738453 43.109627,37.501656 
	C42.771992,37.161484 42.434357,36.821308 42.096725,36.481136 
	C42.012646,34.731739 41.928566,32.982342 41.845177,31.247265 
	C38.125237,31.247265 34.707569,31.247265 31.239510,31.247265 
	C31.239510,43.895546 31.239510,56.295155 31.239510,68.760651 
	C35.219837,68.760651 38.956455,68.760651 43.000011,68.760651 
	C43.000011,61.565075 42.966908,54.604340 43.010464,47.644077 
	C43.045433,42.056412 45.247482,39.921310 50.735096,40.000050 
	C55.169498,40.063679 56.989578,42.197178 56.997345,47.388172 
	C57.007980,54.494434 57.000000,61.600719 57.000000,68.758629 
	C61.223949,68.758629 64.960533,68.758629 68.998749,68.758629 
	C68.998749,61.727161 69.469040,54.893208 68.904503,48.145840 
	C67.576317,32.271439 60.332619,28.659296 47.264557,32.212048 
M14.689945,31.004118 
	C14.127167,31.770046 13.126713,32.509651 13.078782,33.306545 
	C12.889968,36.445721 13.000151,39.602905 13.000073,42.753407 
	C12.999862,51.466064 13.000000,60.178722 13.000000,68.686508 
	C17.388891,68.686508 21.117514,68.686508 24.751488,68.686508 
	C24.751488,56.009167 24.751488,43.646790 24.751488,31.000303 
	C21.553211,31.000303 18.599859,31.000303 14.689945,31.004118 
M13.030108,15.762724 
	C13.009714,16.261568 12.879618,16.785648 12.987577,17.254965 
	C13.503807,19.499065 13.411307,22.368826 14.792194,23.820347 
	C17.164246,26.313730 20.871197,26.252920 23.229279,23.812656 
	C24.614677,22.378971 25.316290,19.289347 24.866158,17.269817 
	C23.671728,11.910973 19.597778,11.284400 13.030108,15.762724 
z"/>
<path fill="#000000" opacity="1.000000" stroke="none" 
	d="
M47.656067,32.112427 
	C60.332619,28.659296 67.576317,32.271439 68.904503,48.145840 
	C69.469040,54.893208 68.998749,61.727161 68.998749,68.758629 
	C64.960533,68.758629 61.223949,68.758629 57.000000,68.758629 
	C57.000000,61.600719 57.007980,54.494434 56.997345,47.388172 
	C56.989578,42.197178 55.169498,40.063679 50.735096,40.000050 
	C45.247482,39.921310 43.045433,42.056412 43.010464,47.644077 
	C42.966908,54.604340 43.000011,61.565075 43.000011,68.760651 
	C38.956455,68.760651 35.219837,68.760651 31.239510,68.760651 
	C31.239510,56.295155 31.239510,43.895546 31.239510,31.247265 
	C34.707569,31.247265 38.125237,31.247265 41.845177,31.247265 
	C41.928566,32.982342 42.012646,34.731739 42.096725,36.481136 
	C42.434357,36.821308 42.771992,37.161484 43.109627,37.501656 
	C44.494602,35.738453 45.879581,33.975250 47.656067,32.112427 
z"/>
<path fill="#000000" opacity="1.000000" stroke="none" 
	d="
M15.168225,31.002211 
	C18.599859,31.000303 21.553211,31.000303 24.751488,31.000303 
	C24.751488,43.646790 24.751488,56.009167 24.751488,68.686508 
	C21.117514,68.686508 17.388891,68.686508 13.000000,68.686508 
	C13.000000,60.178722 12.999862,51.466064 13.000073,42.753407 
	C13.000151,39.602905 12.889968,36.445721 13.078782,33.306545 
	C13.126713,32.509651 14.127167,31.770046 15.168225,31.002211 
z"/>
<path fill="#000000" opacity="1.000000" stroke="none" 
	d="
M13.216644,15.420534 
	C19.597778,11.284400 23.671728,11.910973 24.866158,17.269817 
	C25.316290,19.289347 24.614677,22.378971 23.229279,23.812656 
	C20.871197,26.252920 17.164246,26.313730 14.792194,23.820347 
	C13.411307,22.368826 13.503807,19.499065 12.987577,17.254965 
	C12.879618,16.785648 13.009714,16.261568 13.216644,15.420534 
z"/>
</svg>